<mxfile host="app.diagrams.net" modified="2024-03-11T10:25:29.891Z" agent="Mozilla/5.0 (Windows NT 10.0; Win64; x64) AppleWebKit/537.36 (KHTML, like Gecko) Chrome/122.0.0.0 Safari/537.36" version="24.0.4" etag="NCRM8v1Dxjb3BnaX2DjR" type="github">
  <diagram name="第 1 页" id="fxRDgaaXQnuzU3XRHWZ5">
    <mxGraphModel>
      <root>
        <mxCell id="0" />
        <mxCell id="1" parent="0" />
      </root>
    </mxGraphModel>
  </diagram>
</mxfile>
